<svg width="290" height="265" viewBox="0 0 290 265" fill="none" xmlns="http://www.w3.org/2000/svg">
<rect width="290" height="265" fill="white"/>
<line x1="45.9745" y1="229.51" x2="144.974" y2="228.5" stroke="black" stroke-width="5"/>
<rect x="2.5" y="2.5" width="285" height="260" stroke="black" stroke-width="5"/>
<line x1="78.5001" y1="228.018" x2="77.4493" y2="83.0185" stroke="black" stroke-width="5"/>
<line x1="74.9541" y1="82.5004" x2="186.953" y2="80.4454" stroke="black" stroke-width="5"/>
<line x1="146.193" y1="82.1971" x2="76.1927" y2="120.197" stroke="black" stroke-width="5"/>
<line x1="186.462" y1="81.5655" x2="189.462" y2="98.5655" stroke="black" stroke-width="5"/>
<path d="M197.5 115C197.5 119.217 196.24 122.935 194.325 125.54C192.409 128.145 189.967 129.5 187.5 129.5C185.033 129.5 182.591 128.145 180.675 125.54C178.76 122.935 177.5 119.217 177.5 115C177.5 110.783 178.76 107.065 180.675 104.46C182.591 101.855 185.033 100.5 187.5 100.5C189.967 100.5 192.409 101.855 194.325 104.46C196.24 107.065 197.5 110.783 197.5 115Z" stroke="black" stroke-width="5"/>
<line x1="188.5" y1="132.046" x2="187.481" y2="187.046" stroke="black" stroke-width="5"/>
<line x1="189.305" y1="185.033" x2="202.305" y2="216.033" stroke="black" stroke-width="5"/>
<line x1="187.858" y1="188.672" x2="160.858" y2="218.672" stroke="black" stroke-width="5"/>
<line x1="166" y1="153.5" x2="216" y2="153.5" stroke="black" stroke-width="5"/>
</svg>
